<?xml version="1.0" encoding="utf-8"?>
<!-- Generator: Adobe Illustrator 22.0.1, SVG Export Plug-In . SVG Version: 6.00 Build 0)  -->
<svg version="1.1" id="Layer_1" xmlns="http://www.w3.org/2000/svg" xmlns:xlink="http://www.w3.org/1999/xlink" x="0px" y="0px"
	 viewBox="0 0 205.9 34.6" style="enable-background:new 0 0 205.9 34.6;" xml:space="preserve">
<style type="text/css">
	.st0{fill:#FFFFFF;}
	.st1{font-family:'Nunito-Regular';}
	.st2{font-size:11.1611px;}
</style>
<g>
	<path class="st0" d="M10.6,22.1H9.8v2.4h0c0,0,0,0,0,0c0,0.4-0.4,0.8-0.8,0.8H2.5c-0.4,0-0.8-0.4-0.8-0.8c0,0,0,0,0,0c0,0,0,0,0,0
		h0V10.1h0c0,0,0,0,0,0c0-0.4,0.4-0.8,0.8-0.8h8.1c3.6,0,6.5,2.9,6.5,6.4C17.1,19.2,14.2,22.1,10.6,22.1z M26.8,9.3
		c4.5,0,8.1,3.6,8.1,8s-3.6,8-8.1,8s-8.1-3.6-8.1-8S22.3,9.3,26.8,9.3z M53.5,24.8c0,0.3-0.2,0.5-0.5,0.5c0,0,0,0,0,0H34.6
		c0,0,0,0-0.1,0c-0.3,0-0.5-0.2-0.5-0.5c0-0.1,0-0.2,0.1-0.3l0,0l9.1-14.8h0c0.1-0.3,0.3-0.4,0.6-0.4c0.2,0,0.3,0.2,0.4,0.4h0
		l9.2,14.9l0,0C53.5,24.7,53.5,24.7,53.5,24.8z"/>
	<text transform="matrix(1 0 0 1 65.4749 21.2959)" class="st0 st1 st2">Proof of Physical Address</text>
	<path class="st0" d="M203.4,6.9c0.4,0,0.8,0.4,0.8,0.8v19.1c0,0.4-0.4,0.8-0.8,0.8c-0.4,0-0.8-0.4-0.8-0.8V7.7
		C202.6,7.3,203,6.9,203.4,6.9z"/>
</g>
</svg>
