<svg xmlns="http://www.w3.org/2000/svg" width="18" height="16">
    <path fill="#5C34A2" fill-rule="evenodd" d="M17.714 9.715a.952.952 0 0 1-1.348 0L16 9.348V15a1 1 0 0 1-1 1h-4a1 1 0 0 1-1-1v-3H8v3a1 1 0 0 1-1 1H3a1 1 0 0 1-1-1V9.354l-.359.36A.957.957 0 1 1 .287 8.358l1.89-1.894a.987.987 0 0 1 .286-.286l3.915-3.922c.032-.032.073-.045.109-.072L8.145.522c.044-.082.087-.166.157-.236a.943.943 0 0 1 .714-.272.942.942 0 0 1 .713.272c.07.07.113.154.157.236l1.761 1.764.353.354V2a1 1 0 0 1 2 0v2.644l1.521 1.524c.128.08.232.184.312.312l1.881 1.884a.955.955 0 0 1 0 1.351zm-5.201-3.859a.984.984 0 0 1-.37-.371l-1.845-1.848-1.282-1.285L4 7.376V14h2v-3a1 1 0 0 1 1-1h4a1 1 0 0 1 1 1v3h2V7.345l-1.487-1.489z"/>
</svg>
