<svg xmlns="http://www.w3.org/2000/svg" width="40" height="40">
    <path fill="#5C34A2" fill-rule="evenodd" d="M20 40C8.954 40 0 31.046 0 20S8.954 0 20 0s20 8.954 20 20-8.954 20-20 20zm0-38C10.059 2 2 10.059 2 20s8.059 18 18 18 18-8.059 18-18S29.941 2 20 2zm1.425 18l4.261 4.26a1.01 1.01 0 0 1 0 1.426 1.01 1.01 0 0 1-1.426 0L20 21.425l-4.26 4.261a1.01 1.01 0 0 1-1.426 0 1.01 1.01 0 0 1 0-1.426L18.575 20l-4.292-4.292a1.007 1.007 0 1 1 1.425-1.425L20 18.575l4.292-4.292a1.007 1.007 0 1 1 1.425 1.425L21.425 20z"/>
</svg>
