<svg xmlns="http://www.w3.org/2000/svg" width="254" height="26">
    <path fill="#5C34A2" fill-rule="evenodd" d="M11.172 19.016h-1.016v2.968h-.004c0 .007.004.013.004.02 0 .55-.454.996-1.015.996H1.016A1.006 1.006 0 0 1 0 22.004c0-.007.004-.013.004-.02H0V4.016h.004c0-.007-.004-.013-.004-.02C0 3.446.455 3 1.016 3h10.156c4.487 0 8.125 3.585 8.125 8.008 0 4.422-3.638 8.008-8.125 8.008zM31.484 3c5.609 0 10.157 4.477 10.157 10s-4.548 10-10.157 10-10.156-4.477-10.156-10S25.875 3 31.484 3zM65 22.367a.623.623 0 0 1-.629.617H41.33c-.027.003-.052.016-.08.016a.625.625 0 0 1-.625-.625c0-.136.052-.255.126-.357l-.011-.021L52.179 3.484h.025a.615.615 0 0 1 1.206 0h.026L65 22.12l-.04.054c.021.062.04.124.04.193z"/>
    <text x="80" y="18" fill="#5C34A2" font-family="Nunito" font-size="14">
        Proof of Physical Address
    </text>
    <path fill="#61DB98" fill-rule="evenodd" d="M253 0a1 1 0 0 1 1 1v24a1 1 0 0 1-2 0V1a1 1 0 0 1 1-1z"/>
</svg>
