<svg xmlns="http://www.w3.org/2000/svg" width="254" height="26">
    <path fill="#5C34A2" fill-rule="evenodd" d="M11.188 19.03v.001h-1.032v2.938h-.006c0 .011.006.02.006.031 0 .547-.446.988-1 .997V23H1.031v-.003L1.016 23A1.008 1.008 0 0 1 0 22c0-.011.006-.02.006-.031H0V4.031h.006C.006 4.02 0 4.011 0 4c0-.552.455-1 1.016-1l.015.003V3h10.157v.002c4.472.016 8.093 3.597 8.093 8.014 0 4.416-3.621 7.997-8.093 8.014zM31.484 3c5.601 0 10.141 4.477 10.141 10s-4.54 10-10.141 10c-5.6 0-10.14-4.477-10.14-10s4.54-10 10.14-10zM65 22.367a.623.623 0 0 1-.629.617H41.33c-.027.003-.052.016-.08.016a.625.625 0 0 1-.625-.625c0-.136.052-.255.126-.357l-.011-.021L52.179 3.484h.025a.615.615 0 0 1 1.206 0h.026L65 22.12l-.04.054c.021.062.04.124.04.193zM236.104 12.518c-.093 0-.238-.075-.434-.224a4.254 4.254 0 0 0-.749-.427c-.247-.107-.562-.161-.945-.161-.485 0-.873.11-1.162.329a1.058 1.058 0 0 0-.434.889c0 .215.049.392.147.532.098.14.266.264.504.371.238.107.581.212 1.029.315.644.149 1.139.308 1.484.476.345.168.593.369.742.602.149.233.224.532.224.896 0 .569-.24 1.029-.721 1.379-.481.35-1.118.525-1.911.525-.392 0-.777-.054-1.155-.161a3.672 3.672 0 0 1-1.001-.441 1.725 1.725 0 0 1-.371-.315.474.474 0 0 1-.105-.301c0-.093.03-.173.091-.238a.288.288 0 0 1 .217-.098c.084 0 .229.07.434.21.271.177.548.322.833.434.285.112.642.168 1.071.168.551 0 .98-.1 1.288-.301a.968.968 0 0 0 .462-.861.878.878 0 0 0-.168-.553c-.112-.145-.299-.271-.56-.378-.261-.107-.635-.212-1.12-.315-.831-.187-1.421-.427-1.771-.721-.35-.294-.525-.688-.525-1.183 0-.597.233-1.08.7-1.449.467-.369 1.073-.553 1.82-.553.364 0 .712.047 1.043.14.331.093.618.229.861.406.327.224.49.443.49.658 0 .093-.03.175-.091.245a.279.279 0 0 1-.217.105zm-9.765 1.309c.238.107.581.212 1.029.315.644.149 1.139.308 1.484.476.345.168.593.369.742.602.149.233.224.532.224.896 0 .569-.24 1.029-.721 1.379-.481.35-1.118.525-1.911.525-.392 0-.777-.054-1.155-.161a3.672 3.672 0 0 1-1.001-.441 1.725 1.725 0 0 1-.371-.315.474.474 0 0 1-.105-.301c0-.093.03-.173.091-.238a.288.288 0 0 1 .217-.098c.084 0 .229.07.434.21.271.177.548.322.833.434.285.112.642.168 1.071.168.551 0 .98-.1 1.288-.301a.968.968 0 0 0 .462-.861.878.878 0 0 0-.168-.553c-.112-.145-.299-.271-.56-.378-.261-.107-.635-.212-1.12-.315-.831-.187-1.421-.427-1.771-.721-.35-.294-.525-.688-.525-1.183 0-.597.233-1.08.7-1.449.467-.369 1.073-.553 1.82-.553.364 0 .712.047 1.043.14.331.093.618.229.861.406.327.224.49.443.49.658 0 .093-.03.175-.091.245a.279.279 0 0 1-.217.105c-.093 0-.238-.075-.434-.224a4.254 4.254 0 0 0-.749-.427c-.247-.107-.562-.161-.945-.161-.485 0-.873.11-1.162.329a1.058 1.058 0 0 0-.434.889c0 .215.049.392.147.532.098.14.266.264.504.371zm-3.605.805h-4.662c.028.859.252 1.512.672 1.96.42.448 1.013.672 1.778.672.402 0 .738-.054 1.008-.161.271-.107.56-.25.868-.427.206-.14.35-.21.434-.21.084 0 .157.035.217.105.061.07.091.152.091.245 0 .205-.158.406-.476.602a4.088 4.088 0 0 1-2.128.602c-1.036 0-1.852-.313-2.45-.938-.597-.625-.896-1.484-.896-2.576 0-.7.133-1.318.399-1.855.266-.537.64-.952 1.12-1.246.481-.294 1.034-.441 1.659-.441.878 0 1.571.282 2.079.847.509.565.763 1.342.763 2.331 0 .168-.037.292-.112.371-.074.079-.196.119-.364.119zm-.868-2.359c-.354-.406-.854-.609-1.498-.609-.653 0-1.176.205-1.568.616-.392.411-.625.985-.7 1.722h4.326c-.018-.747-.205-1.323-.56-1.729zm-6.034-.497c-.662.065-1.155.303-1.477.714a2.269 2.269 0 0 0-.483 1.442v3.626c0 .14-.037.247-.112.322a.417.417 0 0 1-.308.112.446.446 0 0 1-.315-.112c-.079-.075-.119-.182-.119-.322v-6.132c0-.14.04-.247.119-.322a.442.442 0 0 1 .315-.112c.122 0 .22.037.294.112a.415.415 0 0 1 .112.308v.91c.383-.803 1.092-1.241 2.128-1.316l.196-.014c.178-.009.304.014.378.07.075.056.112.149.112.28 0 .233-.14.364-.42.392l-.42.042zm-5.488 6.202a.405.405 0 0 1-.308-.119.443.443 0 0 1-.112-.315v-.924a2.238 2.238 0 0 1-.91 1.043c-.401.238-.877.357-1.428.357-.597 0-1.124-.147-1.582-.441a2.91 2.91 0 0 1-1.064-1.246c-.252-.537-.378-1.16-.378-1.869 0-.7.126-1.314.378-1.841a2.88 2.88 0 0 1 1.064-1.225c.458-.289.985-.434 1.582-.434.551 0 1.027.119 1.428.357.402.238.705.586.91 1.043V8.416c0-.131.038-.236.112-.315a.405.405 0 0 1 .308-.119c.131 0 .236.04.315.119.08.079.119.184.119.315v9.128a.422.422 0 0 1-.119.315.426.426 0 0 1-.315.119zm-.994-5.544c-.382-.485-.928-.728-1.638-.728-.718 0-1.274.24-1.666.721-.392.481-.588 1.16-.588 2.037 0 .887.196 1.575.588 2.065.392.49.943.735 1.652.735.71 0 1.258-.24 1.645-.721.388-.481.581-1.164.581-2.051 0-.887-.191-1.573-.574-2.058zm-7.028 5.544a.405.405 0 0 1-.308-.119.443.443 0 0 1-.112-.315v-.924a2.238 2.238 0 0 1-.91 1.043c-.401.238-.877.357-1.428.357-.597 0-1.124-.147-1.582-.441a2.91 2.91 0 0 1-1.064-1.246c-.252-.537-.378-1.16-.378-1.869 0-.7.126-1.314.378-1.841a2.88 2.88 0 0 1 1.064-1.225c.458-.289.985-.434 1.582-.434.551 0 1.027.119 1.428.357.402.238.705.586.91 1.043V8.416c0-.131.038-.236.112-.315a.405.405 0 0 1 .308-.119c.131 0 .236.04.315.119.08.079.119.184.119.315v9.128a.422.422 0 0 1-.119.315.426.426 0 0 1-.315.119zm-.994-5.544c-.382-.485-.928-.728-1.638-.728-.718 0-1.274.24-1.666.721-.392.481-.588 1.16-.588 2.037 0 .887.196 1.575.588 2.065.392.49.943.735 1.652.735.71 0 1.258-.24 1.645-.721.388-.481.581-1.164.581-2.051 0-.887-.191-1.573-.574-2.058zm-6.341 5.558a.39.39 0 0 1-.217-.07.447.447 0 0 1-.161-.196l-1.064-2.436h-5.432l-1.078 2.436c-.084.177-.215.266-.392.266a.418.418 0 0 1-.287-.105.345.345 0 0 1-.119-.273c0-.065.009-.117.028-.154l4.088-9.184a.46.46 0 0 1 .462-.308.53.53 0 0 1 .287.084.473.473 0 0 1 .189.224l4.074 9.184a.373.373 0 0 1 .042.168.324.324 0 0 1-.126.259.445.445 0 0 1-.294.105zm-4.158-8.876l-2.394 5.418h4.774l-2.38-5.418zm-10.136 8.876a.443.443 0 0 1-.315-.112c-.079-.075-.119-.182-.119-.322V8.416c0-.14.04-.247.119-.322a.438.438 0 0 1 .315-.112.42.42 0 0 1 .301.112c.079.075.119.182.119.322v9.142c0 .14-.04.247-.119.322a.425.425 0 0 1-.301.112zm-3.08-.014a.404.404 0 0 1-.308-.119.438.438 0 0 1-.112-.315v-.84c-.196.42-.481.744-.854.973a2.413 2.413 0 0 1-1.288.343c-.439 0-.84-.089-1.204-.266a2.123 2.123 0 0 1-.861-.742 1.861 1.861 0 0 1-.315-1.05c0-.504.131-.896.392-1.176.261-.28.695-.481 1.302-.602.607-.121 1.451-.182 2.534-.182h.294v-.518c0-.616-.126-1.066-.378-1.351-.252-.285-.649-.427-1.19-.427-.691 0-1.349.182-1.974.546l-.217.147c-.117.079-.217.119-.301.119a.293.293 0 0 1-.231-.105.38.38 0 0 1-.091-.259c0-.205.163-.406.49-.602a4.385 4.385 0 0 1 1.092-.434 4.77 4.77 0 0 1 1.19-.154c.821 0 1.435.215 1.841.644.406.429.609 1.078.609 1.946v3.99a.438.438 0 0 1-.112.315.404.404 0 0 1-.308.119zm-.42-3.346h-.266c-.896 0-1.582.037-2.058.112-.476.075-.812.203-1.008.385-.196.182-.294.446-.294.791 0 .392.149.716.448.973.299.257.667.385 1.106.385.607 0 1.104-.205 1.491-.616.387-.411.581-.933.581-1.568v-.462zm-8.176 2.632c.355 0 .651-.051.889-.154a5.75 5.75 0 0 0 .777-.42c.084-.056.166-.107.245-.154a.405.405 0 0 1 .189-.07c.093 0 .168.033.224.098a.353.353 0 0 1 .084.238c0 .112-.033.21-.098.294-.065.084-.191.191-.378.322a2.93 2.93 0 0 1-.917.441 3.735 3.735 0 0 1-1.071.161c-.625 0-1.176-.145-1.652-.434a2.894 2.894 0 0 1-1.106-1.232c-.261-.532-.392-1.143-.392-1.834 0-.7.133-1.318.399-1.855a3.011 3.011 0 0 1 1.12-1.253c.481-.299 1.034-.448 1.659-.448.355 0 .7.047 1.036.14.336.093.635.233.896.42.168.121.287.231.357.329s.105.203.105.315a.372.372 0 0 1-.084.252.266.266 0 0 1-.21.098c-.093 0-.243-.079-.448-.238a3.682 3.682 0 0 0-.728-.42 2.257 2.257 0 0 0-.882-.154c-.728 0-1.297.25-1.708.749-.411.499-.616 1.188-.616 2.065 0 .868.203 1.542.609 2.023.406.481.973.721 1.701.721zm-5.446-7.854a.631.631 0 0 1-.455-.168.578.578 0 0 1-.175-.434c0-.187.059-.336.175-.448a.631.631 0 0 1 .455-.168c.187 0 .339.056.455.168a.59.59 0 0 1 .175.448.574.574 0 0 1-.175.434.628.628 0 0 1-.455.168zm-5.774 4.417c.238.107.581.212 1.029.315.643.149 1.138.308 1.484.476.345.168.592.369.741.602.15.233.224.532.224.896 0 .569-.24 1.029-.72 1.379-.481.35-1.118.525-1.911.525-.392 0-.777-.054-1.155-.161a3.672 3.672 0 0 1-1.001-.441 1.7 1.7 0 0 1-.371-.315.475.475 0 0 1-.106-.301c0-.093.031-.173.092-.238a.286.286 0 0 1 .217-.098c.084 0 .228.07.434.21.27.177.548.322.833.434.284.112.641.168 1.071.168.55 0 .979-.1 1.288-.301a.968.968 0 0 0 .462-.861.878.878 0 0 0-.168-.553c-.112-.145-.299-.271-.56-.378-.262-.107-.635-.212-1.12-.315-.831-.187-1.421-.427-1.772-.721-.35-.294-.524-.688-.524-1.183 0-.597.233-1.08.7-1.449.466-.369 1.073-.553 1.82-.553.363 0 .711.047 1.042.14.332.093.619.229.861.406.327.224.49.443.49.658 0 .093-.03.175-.09.245a.28.28 0 0 1-.218.105c-.093 0-.237-.075-.433-.224a4.254 4.254 0 0 0-.749-.427c-.248-.107-.563-.161-.945-.161-.486 0-.873.11-1.163.329a1.057 1.057 0 0 0-.433.889c0 .215.049.392.147.532.098.14.266.264.504.371zm-6.587 6.419c-.075.158-.196.238-.364.238a.418.418 0 0 1-.273-.098.312.312 0 0 1-.119-.252c0-.056.014-.112.042-.168l.994-2.17-2.87-6.244a.358.358 0 0 1 .105-.455.494.494 0 0 1 .315-.119c.177 0 .298.084.364.252l2.52 5.656 2.52-5.642c.074-.168.196-.252.364-.252.102 0 .196.037.28.112a.345.345 0 0 1 .126.266.402.402 0 0 1-.042.182l-3.962 8.694zm-4.396-2.254a.426.426 0 0 1-.315-.119.422.422 0 0 1-.119-.315v-3.906c0-.672-.136-1.162-.406-1.47-.271-.308-.7-.462-1.288-.462-.672 0-1.211.205-1.617.616-.406.411-.609.961-.609 1.652v3.57a.443.443 0 0 1-.112.315.405.405 0 0 1-.308.119.426.426 0 0 1-.315-.119.422.422 0 0 1-.119-.315V8.416c0-.131.039-.236.119-.315a.426.426 0 0 1 .315-.119c.13 0 .233.04.308.119a.443.443 0 0 1 .112.315v3.85c.214-.42.525-.742.931-.966.406-.224.87-.336 1.393-.336 1.633 0 2.45.877 2.45 2.632v3.962a.443.443 0 0 1-.112.315.405.405 0 0 1-.308.119zm-10.248-4.228h-2.87v3.78c0 .14-.04.25-.119.329a.426.426 0 0 1-.315.119.426.426 0 0 1-.315-.119.445.445 0 0 1-.119-.329V8.486c0-.121.044-.224.133-.308a.46.46 0 0 1 .329-.126h3.276c1.027 0 1.822.247 2.387.742s.847 1.195.847 2.1c0 .915-.285 1.622-.854 2.121-.569.499-1.363.749-2.38.749zm-.056-4.97h-2.814v4.228h2.814c1.615 0 2.422-.709 2.422-2.128 0-1.4-.807-2.1-2.422-2.1zm-8.974-.028c-.532.037-.933.203-1.204.497-.271.294-.406.744-.406 1.351v.518h1.694c.121 0 .215.033.28.098a.341.341 0 0 1 .098.252.32.32 0 0 1-.098.245c-.065.061-.159.091-.28.091h-1.694v5.74a.412.412 0 0 1-.126.315.434.434 0 0 1-.308.119.419.419 0 0 1-.308-.112c-.075-.075-.112-.182-.112-.322v-5.74h-1.064a.373.373 0 0 1-.266-.091.32.32 0 0 1-.098-.245c0-.103.033-.187.098-.252a.36.36 0 0 1 .266-.098h1.064v-.35c0-.821.198-1.465.595-1.932.397-.467.973-.728 1.729-.784l.364-.028c.364-.028.546.079.546.322 0 .224-.135.35-.406.378l-.364.028zm-6.09 8.82c-.476.289-1.022.434-1.638.434-.625 0-1.174-.145-1.645-.434a2.912 2.912 0 0 1-1.099-1.232c-.261-.532-.392-1.153-.392-1.862 0-.709.131-1.33.392-1.862a2.912 2.912 0 0 1 1.099-1.232c.471-.289 1.02-.434 1.645-.434.616 0 1.162.145 1.638.434.476.289.842.7 1.099 1.232s.385 1.153.385 1.862c0 .709-.128 1.33-.385 1.862a2.854 2.854 0 0 1-1.099 1.232zm.007-5.145c-.397-.49-.945-.735-1.645-.735-.709 0-1.26.245-1.652.735-.392.49-.588 1.174-.588 2.051 0 .896.191 1.582.574 2.058.383.476.933.714 1.652.714.719 0 1.274-.238 1.666-.714.392-.476.588-1.162.588-2.058 0-.877-.198-1.561-.595-2.051zm-9.485-3.675c-.532.037-.933.203-1.204.497-.27.294-.406.744-.406 1.351v.518h1.694c.122 0 .215.033.28.098a.338.338 0 0 1 .098.252.316.316 0 0 1-.098.245c-.065.061-.158.091-.28.091h-1.694v5.74a.412.412 0 0 1-.126.315.432.432 0 0 1-.308.119.42.42 0 0 1-.308-.112c-.074-.075-.112-.182-.112-.322v-5.74h-1.064c-.112 0-.2-.03-.266-.091a.32.32 0 0 1-.098-.245c0-.103.033-.187.098-.252a.362.362 0 0 1 .266-.098h1.064v-.35c0-.821.199-1.465.595-1.932.397-.467.973-.728 1.729-.784l.364-.028c.364-.028.546.079.546.322 0 .224-.135.35-.406.378l-.364.028zm-6.09 8.82c-.476.289-1.022.434-1.638.434-.625 0-1.173-.145-1.645-.434a2.918 2.918 0 0 1-1.099-1.232c-.261-.532-.392-1.153-.392-1.862 0-.709.131-1.33.392-1.862a2.918 2.918 0 0 1 1.099-1.232c.472-.289 1.02-.434 1.645-.434.616 0 1.162.145 1.638.434.476.289.843.7 1.099 1.232.257.532.385 1.153.385 1.862 0 .709-.128 1.33-.385 1.862a2.848 2.848 0 0 1-1.099 1.232zm.007-5.145c-.396-.49-.945-.735-1.645-.735-.709 0-1.26.245-1.652.735-.392.49-.588 1.174-.588 2.051 0 .896.192 1.582.574 2.058.383.476.934.714 1.652.714.719 0 1.274-.238 1.666-.714.392-.476.588-1.162.588-2.058 0-.877-.198-1.561-.595-2.051zm-7.637 5.145c-.476.289-1.022.434-1.638.434-.625 0-1.173-.145-1.645-.434a2.918 2.918 0 0 1-1.099-1.232c-.261-.532-.392-1.153-.392-1.862 0-.709.131-1.33.392-1.862a2.918 2.918 0 0 1 1.099-1.232c.472-.289 1.02-.434 1.645-.434.616 0 1.162.145 1.638.434.476.289.843.7 1.099 1.232.257.532.385 1.153.385 1.862 0 .709-.128 1.33-.385 1.862a2.848 2.848 0 0 1-1.099 1.232zm.007-5.145c-.396-.49-.945-.735-1.645-.735-.709 0-1.26.245-1.652.735-.392.49-.588 1.174-.588 2.051 0 .896.192 1.582.574 2.058.383.476.934.714 1.652.714.719 0 1.274-.238 1.666-.714.392-.476.588-1.162.588-2.058 0-.877-.198-1.561-.595-2.051zm-6.139-.665c-.662.065-1.155.303-1.477.714a2.269 2.269 0 0 0-.483 1.442v3.626c0 .14-.037.247-.112.322a.417.417 0 0 1-.308.112.446.446 0 0 1-.315-.112c-.079-.075-.119-.182-.119-.322v-6.132c0-.14.04-.247.119-.322a.442.442 0 0 1 .315-.112c.122 0 .22.037.294.112a.415.415 0 0 1 .112.308v.91c.383-.803 1.092-1.241 2.128-1.316l.196-.014c.178-.009.304.014.378.07.075.056.112.149.112.28 0 .233-.14.364-.42.392l-.42.042zm-7.713 1.988h-2.87v3.78c0 .14-.04.25-.119.329a.43.43 0 0 1-.315.119.426.426 0 0 1-.315-.119.441.441 0 0 1-.119-.329V8.486c0-.121.044-.224.133-.308a.458.458 0 0 1 .329-.126h3.276c1.026 0 1.822.247 2.387.742.564.495.847 1.195.847 2.1 0 .915-.285 1.622-.854 2.121-.57.499-1.363.749-2.38.749zm-.056-4.97h-2.814v4.228h2.814c1.614 0 2.422-.709 2.422-2.128 0-1.4-.808-2.1-2.422-2.1zm79.224 2.198c.131 0 .234.037.308.112.075.075.112.182.112.322v6.132c0 .14-.037.247-.112.322a.417.417 0 0 1-.308.112.446.446 0 0 1-.315-.112c-.079-.075-.119-.182-.119-.322v-6.132c0-.14.04-.247.119-.322a.442.442 0 0 1 .315-.112z"/>
    <path fill="#61DB98" fill-rule="evenodd" d="M253 0a1 1 0 0 1 1 1v24a1 1 0 0 1-2 0V1a1 1 0 0 1 1-1z"/>
</svg>
