<svg xmlns="http://www.w3.org/2000/svg" width="20" height="16">
    <path fill="#5C34A2" fill-rule="evenodd" d="M19.449.296a8.358 8.358 0 0 1-2.608.98A4.12 4.12 0 0 0 13.847 0c-2.266 0-4.103 1.81-4.103 4.04 0 .316.036.625.106.92A11.71 11.71 0 0 1 1.393.739a3.965 3.965 0 0 0-.555 2.03c0 1.403.726 2.639 1.825 3.363a4.158 4.158 0 0 1-1.858-.508v.051c0 1.957 1.415 3.589 3.291 3.962a4.177 4.177 0 0 1-1.854.068c.522 1.605 2.037 2.773 3.832 2.807A8.313 8.313 0 0 1 .979 14.24c-.332 0-.658-.019-.979-.055A11.747 11.747 0 0 0 6.29 16c7.546 0 11.673-6.156 11.673-11.495l-.013-.524A8.186 8.186 0 0 0 20 1.893a8.324 8.324 0 0 1-2.356.637A4.078 4.078 0 0 0 19.449.296z"/>
</svg>
