<svg xmlns="http://www.w3.org/2000/svg" width="216" height="258">
    <defs>
        <linearGradient id="a" x1="0%" y1="0%" y2="0%">
            <stop offset="0%" stop-color="#5B33A2"/>
            <stop offset="100%" stop-color="#7B5AB2"/>
        </linearGradient>
    </defs>
    <path fill="#37165E" fill-rule="evenodd" d="M176 215h37a3 3 0 0 1 3 3v37a3 3 0 0 1-3 3h-37a3 3 0 0 1-3-3v-37a3 3 0 0 1 3-3z"/>
    <path fill="url(#a)" d="M176 215h37a3 3 0 0 1 3 3v37a3 3 0 0 1-3 3h-37a3 3 0 0 1-3-3v-37a3 3 0 0 1 3-3z"/>
    <path fill="#FFF" fill-rule="evenodd" d="M186.469 239.406c-.011 0-.021-.003-.031-.003v.003h-.375v1.188h-.007c0 .006.007.009.007.015a.4.4 0 0 1-.407.391h-3.25a.399.399 0 0 1-.406-.391c0-.006.006-.009.007-.015H182v-7.188c0-.224.182-.406.406-.406h4.032v.003c.01 0 .02-.003.031-.003 1.795 0 3.25 1.434 3.25 3.203s-1.455 3.203-3.25 3.203zM194.594 233c2.243 0 4.062 1.791 4.062 4s-1.819 4-4.062 4c-2.244 0-4.063-1.791-4.063-4s1.819-4 4.063-4zM208.014 240.755a.25.25 0 0 1-.252.247h-9.26l-.001-.002h-.001a.25.25 0 0 1-.25-.25c0-.052.028-.094.055-.134l-.004-.009 4.58-7.405h.02c.026-.109.112-.197.231-.197.12 0 .205.088.231.197h.021l4.63 7.454-.026.037c.006.022.026.038.026.062z"/>
    <path fill="#61DB98" fill-rule="evenodd" d="M176 129h37a3 3 0 0 1 3 3v37a3 3 0 0 1-3 3h-37a3 3 0 0 1-3-3v-37a3 3 0 0 1 3-3zM90 172h37a3 3 0 0 1 3 3v37a3 3 0 0 1-3 3H90a3 3 0 0 1-3-3v-37a3 3 0 0 1 3-3z"/>
    <path fill="#90E1D8" fill-rule="evenodd" d="M176 43h37a3 3 0 0 1 3 3v37a3 3 0 0 1-3 3h-37a3 3 0 0 1-3-3V46a3 3 0 0 1 3-3z"/>
    <path fill="#5B32A2" fill-rule="evenodd" d="M176 0h37a3 3 0 0 1 3 3v37a3 3 0 0 1-3 3h-37a3 3 0 0 1-3-3V3a3 3 0 0 1 3-3z"/>
    <path fill="#9987FC" fill-rule="evenodd" d="M89 86h80a3 3 0 0 1 3 3v37a3 3 0 0 1-3 3H89a3 3 0 0 1-3-3V89a3 3 0 0 1 3-3zM133 0h37a3 3 0 0 1 3 3v37a3 3 0 0 1-3 3h-37a3 3 0 0 1-3-3V3a3 3 0 0 1 3-3z"/>
    <path fill="#90E1D8" fill-rule="evenodd" d="M46 215h80a3 3 0 0 1 3 3v37a3 3 0 0 1-3 3H46a3 3 0 0 1-3-3v-37a3 3 0 0 1 3-3z"/>
    <path fill="#5B32A2" fill-rule="evenodd" d="M46 129h37a3 3 0 0 1 3 3v37a3 3 0 0 1-3 3H46a3 3 0 0 1-3-3v-37a3 3 0 0 1 3-3z"/>
    <path fill="#61DB98" fill-rule="evenodd" d="M89 43h37a3 3 0 0 1 3 3v37a3 3 0 0 1-3 3H89a3 3 0 0 1-3-3V46a3 3 0 0 1 3-3z"/>
    <path fill="#9987FC" fill-rule="evenodd" d="M3 172h37a3 3 0 0 1 3 3v37a3 3 0 0 1-3 3H3a3 3 0 0 1-3-3v-37a3 3 0 0 1 3-3zM133 172h37a3 3 0 0 1 3 3v37a3 3 0 0 1-3 3h-37a3 3 0 0 1-3-3v-37a3 3 0 0 1 3-3z"/>
    <path fill="#90E1D8" fill-rule="evenodd" d="M3 86h37a3 3 0 0 1 3 3v37a3 3 0 0 1-3 3H3a3 3 0 0 1-3-3V89a3 3 0 0 1 3-3z"/>
    <path fill="#5B32A2" fill-rule="evenodd" d="M3 0h80a3 3 0 0 1 3 3v37a3 3 0 0 1-3 3H3a3 3 0 0 1-3-3V3a3 3 0 0 1 3-3z"/>
</svg>
