<svg xmlns="http://www.w3.org/2000/svg" width="432" height="259">
    <defs>
        <linearGradient id="a" x1="0%" y1="0%" y2="0%">
            <stop offset="0%" stop-color="#5B33A2"/>
            <stop offset="100%" stop-color="#7B5AB2"/>
        </linearGradient>
    </defs>
    <path fill="#37165E" fill-rule="evenodd" d="M170 216H46a3 3 0 0 0-3 3v37a3 3 0 0 1-3 3H3a3 3 0 0 1-3-3v-37a3 3 0 0 1 3-3h15a3 3 0 0 0 3-3v-37a3 3 0 0 1 3-3h146a3 3 0 0 1 3 3v37a3 3 0 0 1-3 3z"/>
    <path fill="url(#a)" d="M170 216H46a3 3 0 0 0-3 3v37a3 3 0 0 1-3 3H3a3 3 0 0 1-3-3v-37a3 3 0 0 1 3-3h15a3 3 0 0 0 3-3v-37a3 3 0 0 1 3-3h146a3 3 0 0 1 3 3v37a3 3 0 0 1-3 3z"/>
    <path fill="#FFF" fill-rule="evenodd" d="M13.468 240.406l-.015-.001v.001h-.405v1.188h-.007c0 .006.007.009.007.015a.398.398 0 0 1-.405.391H9.405a.398.398 0 0 1-.405-.391c0-.006.006-.009.007-.015H9v-7.188c0-.224.181-.406.405-.406h4.048v.002l.015-.002c1.797 0 3.254 1.434 3.254 3.203s-1.457 3.203-3.254 3.203zM21.595 234c2.244 0 4.064 1.791 4.064 4s-1.82 4-4.064 4c-2.244 0-4.063-1.791-4.063-4s1.819-4 4.063-4zM35.013 241.755a.249.249 0 0 1-.251.247h-9.261l-.002-.003a.25.25 0 0 1-.245-.249c0-.05.028-.09.053-.129l-.007-.014 4.58-7.405h.021c.026-.109.111-.197.23-.197.12 0 .205.088.231.197h.021l4.63 7.454-.026.037c.007.022.026.038.026.062z"/>
    <path fill="#61DB98" fill-rule="evenodd" d="M3 130h37a3 3 0 0 1 3 3v37a3 3 0 0 1-3 3H3a3 3 0 0 1-3-3v-37a3 3 0 0 1 3-3z"/>
    <path fill="#90E1D8" fill-rule="evenodd" d="M3 44h37a3 3 0 0 1 3 3v37a3 3 0 0 1-3 3H3a3 3 0 0 1-3-3V47a3 3 0 0 1 3-3z"/>
    <path fill="#5B32A2" fill-rule="evenodd" d="M3 1h37a3 3 0 0 1 3 3v37a3 3 0 0 1-3 3H3a3 3 0 0 1-3-3V4a3 3 0 0 1 3-3z"/>
    <path fill="#9987FC" fill-rule="evenodd" d="M46 87h80a3 3 0 0 1 3 3v37a3 3 0 0 1-3 3H46a3 3 0 0 1-3-3V90a3 3 0 0 1 3-3zM305 44h80a3 3 0 0 1 3 3v37a3 3 0 0 1-3 3h-80a3 3 0 0 1-3-3V47a3 3 0 0 1 3-3zM46 1h37a3 3 0 0 1 3 3v37a3 3 0 0 1-3 3H46a3 3 0 0 1-3-3V4a3 3 0 0 1 3-3z"/>
    <path fill="#90E1D8" fill-rule="evenodd" d="M89 216h80a3 3 0 0 1 3 3v37a3 3 0 0 1-3 3H89a3 3 0 0 1-3-3v-37a3 3 0 0 1 3-3z"/>
    <path fill="#5B32A2" fill-rule="evenodd" d="M133 130h37a3 3 0 0 1 3 3v37a3 3 0 0 1-3 3h-37a3 3 0 0 1-3-3v-37a3 3 0 0 1 3-3zM262 87h37a3 3 0 0 1 3 3v37a3 3 0 0 1-3 3h-37a3 3 0 0 1-3-3V90a3 3 0 0 1 3-3zM392 1h37a3 3 0 0 1 3 3v37a3 3 0 0 1-3 3h-37a3 3 0 0 1-3-3V4a3 3 0 0 1 3-3z"/>
    <text fill="#FFF" font-family="Nunito" font-size="58" transform="matrix(.26652 0 0 .26667 32.643 199.535)">
        Blockchain for all
    </text>
    <path fill="#91E1D9" fill-rule="evenodd" d="M158.5 184a.5.5 0 0 1 .5.5v21a.5.5 0 0 1-1 0v-21a.5.5 0 0 1 .5-.5z"/>
    <path fill="#61DB98" fill-rule="evenodd" d="M89 44h37a3 3 0 0 1 3 3v37a3 3 0 0 1-3 3H89a3 3 0 0 1-3-3V47a3 3 0 0 1 3-3zM392 87h37a3 3 0 0 1 3 3v37a3 3 0 0 1-3 3h-37a3 3 0 0 1-3-3V90a3 3 0 0 1 3-3zM262.177.533h37.177a3 3 0 0 1 3 3v37.2a3 3 0 0 1-3 3h-37.177a3 3 0 0 1-3-3v-37.2a3 3 0 0 1 3-3z"/>
    <path fill="#9987FC" fill-rule="evenodd" d="M219 43.733h37.177a3 3 0 0 1 3 3v37.2a3 3 0 0 1-3 3H219a3 3 0 0 1-3-3v-37.2a3 3 0 0 1 3-3zM176 173h37a3 3 0 0 1 3 3v37a3 3 0 0 1-3 3h-37a3 3 0 0 1-3-3v-37a3 3 0 0 1 3-3z"/>
    <path fill="#90E1D8" fill-rule="evenodd" d="M176 87h37a3 3 0 0 1 3 3v37a3 3 0 0 1-3 3h-37a3 3 0 0 1-3-3V90a3 3 0 0 1 3-3z"/>
    <path fill="#5B32A2" fill-rule="evenodd" d="M133 1h80a3 3 0 0 1 3 3v37a3 3 0 0 1-3 3h-80a3 3 0 0 1-3-3V4a3 3 0 0 1 3-3z"/>
</svg>
